<svg width="1800" height="1220" viewBox="0 0 1800 1220" fill="none" xmlns="http://www.w3.org/2000/svg">
  <defs>
    <linearGradient id="bg" x1="0" y1="0" x2="1" y2="1">
      <stop offset="0%" stop-color="#F6F8F1"/>
      <stop offset="100%" stop-color="#E7EDE0"/>
    </linearGradient>
    <linearGradient id="grass" x1="0" y1="0" x2="1" y2="1">
      <stop offset="0%" stop-color="#DCE9D7"/>
      <stop offset="100%" stop-color="#BED2BC"/>
    </linearGradient>
    <linearGradient id="road" x1="0" y1="0" x2="1" y2="1">
      <stop offset="0%" stop-color="#EBEEE7"/>
      <stop offset="100%" stop-color="#DCE2D7"/>
    </linearGradient>
    <filter id="phoneShadow" x="-20%" y="-20%" width="140%" height="140%">
      <feDropShadow dx="0" dy="22" stdDeviation="28" flood-color="#809177" flood-opacity="0.2"/>
    </filter>
    <filter id="softShadow" x="-20%" y="-20%" width="140%" height="140%">
      <feDropShadow dx="0" dy="10" stdDeviation="18" flood-color="#7B8B74" flood-opacity="0.16"/>
    </filter>
  </defs>

  <rect width="1800" height="1220" fill="url(#bg)"/>
  <circle cx="190" cy="190" r="116" fill="#ECF2E6"/>
  <circle cx="1596" cy="1056" r="144" fill="#E3EBDD"/>
  <circle cx="1430" cy="160" r="82" fill="#EEF3E9"/>

  <text x="118" y="98" fill="#1F2A22" font-size="40" font-family="Manrope, Arial, sans-serif" font-weight="800">
    Schedule + Joystick Konzept
  </text>
  <text x="118" y="136" fill="#667267" font-size="20" font-family="Manrope, Arial, sans-serif">
    Zeitplan mit Zonenwahl und Wochenraster, plus Dashboard im reinen Joystick-Modus
  </text>

  <g filter="url(#softShadow)">
    <rect x="118" y="170" width="1564" height="116" rx="28" fill="#FFFFFF" fill-opacity="0.78"/>
    <text x="154" y="220" fill="#2F7D4A" font-size="16" font-family="Manrope, Arial, sans-serif" font-weight="700">Konzeptregeln</text>
    <text x="154" y="252" fill="#1F2A22" font-size="18" font-family="Manrope, Arial, sans-serif" font-weight="700">Zeitplan beginnt mit Zonen, Tagen und Uhrzeit</text>
    <text x="664" y="252" fill="#1F2A22" font-size="18" font-family="Manrope, Arial, sans-serif" font-weight="700">Wochenraster bleibt kompakt und leicht lesbar</text>
    <text x="1186" y="252" fill="#1F2A22" font-size="18" font-family="Manrope, Arial, sans-serif" font-weight="700">Joystick laeuft im Querformat: links lenken, rechts vor und zurueck</text>
  </g>

  <g filter="url(#phoneShadow)">
    <rect x="132" y="334" width="438" height="770" rx="48" fill="#101611"/>
    <rect x="150" y="352" width="402" height="734" rx="36" fill="#F4F7F0"/>
    <rect x="284" y="366" width="132" height="18" rx="9" fill="#DDE5D7"/>
  </g>
  <g filter="url(#phoneShadow)">
    <rect x="682" y="334" width="438" height="770" rx="48" fill="#101611"/>
    <rect x="700" y="352" width="402" height="734" rx="36" fill="#F4F7F0"/>
    <rect x="834" y="366" width="132" height="18" rx="9" fill="#DDE5D7"/>
  </g>
  <g filter="url(#phoneShadow)">
    <rect x="1188" y="474" width="528" height="492" rx="44" fill="#101611"/>
    <rect x="1206" y="492" width="492" height="456" rx="30" fill="#F4F7F0"/>
    <rect x="1428" y="506" width="48" height="10" rx="5" fill="#DDE5D7"/>
  </g>

  <text x="351" y="1138" text-anchor="middle" fill="#1F2A22" font-size="28" font-family="Manrope, Arial, sans-serif" font-weight="800">Zeitplan anlegen</text>
  <text x="351" y="1166" text-anchor="middle" fill="#667267" font-size="18" font-family="Manrope, Arial, sans-serif">Zonen waehlen, Tage setzen, Uhrzeit festlegen</text>
  <text x="901" y="1138" text-anchor="middle" fill="#1F2A22" font-size="28" font-family="Manrope, Arial, sans-serif" font-weight="800">Wochenplan</text>
  <text x="901" y="1166" text-anchor="middle" fill="#667267" font-size="18" font-family="Manrope, Arial, sans-serif">Slots im Raster sehen und gezielt bearbeiten</text>
  <text x="1451" y="1138" text-anchor="middle" fill="#1F2A22" font-size="28" font-family="Manrope, Arial, sans-serif" font-weight="800">Joystick-Modus</text>
  <text x="1451" y="1166" text-anchor="middle" fill="#667267" font-size="18" font-family="Manrope, Arial, sans-serif">Querformat mit linker Lenkung und rechtem Vorwaerts-/Rueckwaerts-Stick</text>

  <!-- Schedule create screen -->
  <g filter="url(#softShadow)">
    <rect x="180" y="404" width="40" height="40" rx="20" fill="#FFFFFF" fill-opacity="0.92"/>
    <path d="M197 424L191 418L197 412" stroke="#667267" stroke-width="2.4" stroke-linecap="round" stroke-linejoin="round"/>
    <text x="260" y="428" fill="#1F2A22" font-size="26" font-family="Manrope, Arial, sans-serif" font-weight="800">Zeitplan</text>
    <text x="260" y="456" fill="#667267" font-size="15" font-family="Manrope, Arial, sans-serif">Lege einen Mähzeitraum für bestimmte Zonen fest</text>

    <rect x="180" y="486" width="342" height="530" rx="30" fill="#FFFFFF"/>
    <text x="208" y="528" fill="#667267" font-size="14" font-family="Manrope, Arial, sans-serif" font-weight="700">Zonen</text>
    <rect x="208" y="542" width="116" height="40" rx="20" fill="#F1F6EE"/>
    <text x="266" y="568" text-anchor="middle" fill="#2F7D4A" font-size="15" font-family="Manrope, Arial, sans-serif" font-weight="700">Vordergarten</text>
    <rect x="334" y="542" width="104" height="40" rx="20" fill="#F1F6EE"/>
    <text x="386" y="568" text-anchor="middle" fill="#2F7D4A" font-size="15" font-family="Manrope, Arial, sans-serif" font-weight="700">Zone West</text>
    <rect x="448" y="542" width="46" height="40" rx="20" fill="#F7F8F5"/>
    <text x="471" y="568" text-anchor="middle" fill="#667267" font-size="22" font-family="Manrope, Arial, sans-serif" font-weight="700">+</text>

    <text x="208" y="626" fill="#667267" font-size="14" font-family="Manrope, Arial, sans-serif" font-weight="700">Aktive Tage</text>
    <g>
      <rect x="208" y="640" width="40" height="40" rx="20" fill="#FF7A22"/>
      <text x="228" y="666" text-anchor="middle" fill="#FFFFFF" font-size="15" font-family="Manrope, Arial, sans-serif" font-weight="800">M</text>
      <rect x="256" y="640" width="40" height="40" rx="20" fill="#FF7A22"/>
      <text x="276" y="666" text-anchor="middle" fill="#FFFFFF" font-size="15" font-family="Manrope, Arial, sans-serif" font-weight="800">D</text>
      <rect x="304" y="640" width="40" height="40" rx="20" fill="#FF7A22"/>
      <text x="324" y="666" text-anchor="middle" fill="#FFFFFF" font-size="15" font-family="Manrope, Arial, sans-serif" font-weight="800">M</text>
      <rect x="352" y="640" width="40" height="40" rx="20" fill="#FF7A22"/>
      <text x="372" y="666" text-anchor="middle" fill="#FFFFFF" font-size="15" font-family="Manrope, Arial, sans-serif" font-weight="800">D</text>
      <rect x="400" y="640" width="40" height="40" rx="20" fill="#FF7A22"/>
      <text x="420" y="666" text-anchor="middle" fill="#FFFFFF" font-size="15" font-family="Manrope, Arial, sans-serif" font-weight="800">F</text>
      <rect x="448" y="640" width="40" height="40" rx="20" fill="#F0F2EE"/>
      <text x="468" y="666" text-anchor="middle" fill="#95A095" font-size="15" font-family="Manrope, Arial, sans-serif" font-weight="800">S</text>
      <rect x="496" y="640" width="40" height="40" rx="20" fill="#F0F2EE"/>
      <text x="516" y="666" text-anchor="middle" fill="#95A095" font-size="15" font-family="Manrope, Arial, sans-serif" font-weight="800">S</text>
    </g>

    <text x="208" y="722" fill="#667267" font-size="14" font-family="Manrope, Arial, sans-serif" font-weight="700">Zeitfenster</text>
    <rect x="208" y="736" width="140" height="76" rx="22" fill="#F7F8F5"/>
    <text x="232" y="764" fill="#667267" font-size="13" font-family="Manrope, Arial, sans-serif" font-weight="700">Start</text>
    <text x="232" y="798" fill="#1F2A22" font-size="28" font-family="Manrope, Arial, sans-serif" font-weight="800">08:00</text>
    <rect x="366" y="736" width="140" height="76" rx="22" fill="#F7F8F5"/>
    <text x="390" y="764" fill="#667267" font-size="13" font-family="Manrope, Arial, sans-serif" font-weight="700">Ende</text>
    <text x="390" y="798" fill="#1F2A22" font-size="28" font-family="Manrope, Arial, sans-serif" font-weight="800">12:00</text>

    <rect x="208" y="832" width="298" height="42" rx="16" fill="#F5F7F2"/>
    <text x="357" y="859" text-anchor="middle" fill="#667267" font-size="14" font-family="Manrope, Arial, sans-serif">Optional weitere Zeitfenster für andere Tage hinzufügen</text>

    <rect x="208" y="894" width="172" height="52" rx="18" fill="#2F7D4A"/>
    <text x="294" y="927" text-anchor="middle" fill="#FFFFFF" font-size="18" font-family="Manrope, Arial, sans-serif" font-weight="800">Zeitfenster speichern</text>
    <rect x="392" y="894" width="114" height="52" rx="18" fill="#F4F7F0" stroke="#DCE4D8"/>
    <text x="449" y="927" text-anchor="middle" fill="#1F2A22" font-size="16" font-family="Manrope, Arial, sans-serif" font-weight="700">Abbrechen</text>
  </g>

  <!-- Weekly plan screen -->
  <g filter="url(#softShadow)">
    <rect x="730" y="404" width="40" height="40" rx="20" fill="#FFFFFF" fill-opacity="0.92"/>
    <path d="M747 424L741 418L747 412" stroke="#667267" stroke-width="2.4" stroke-linecap="round" stroke-linejoin="round"/>
    <text x="810" y="428" fill="#1F2A22" font-size="26" font-family="Manrope, Arial, sans-serif" font-weight="800">Wochenplan</text>
    <text x="1024" y="428" fill="#667267" font-size="15" font-family="Manrope, Arial, sans-serif">Zuruecksetzen</text>
    <text x="810" y="456" fill="#667267" font-size="15" font-family="Manrope, Arial, sans-serif">Zonen und Zeitfenster im Wochenraster bearbeiten</text>

    <rect x="730" y="488" width="342" height="470" rx="30" fill="#FFFFFF"/>
    <rect x="758" y="514" width="96" height="34" rx="17" fill="#F1F6EE"/>
    <text x="806" y="536" text-anchor="middle" fill="#2F7D4A" font-size="13" font-family="Manrope, Arial, sans-serif" font-weight="700">Vordergarten</text>
    <rect x="864" y="514" width="92" height="34" rx="17" fill="#F1F6EE"/>
    <text x="910" y="536" text-anchor="middle" fill="#2F7D4A" font-size="13" font-family="Manrope, Arial, sans-serif" font-weight="700">Zone West</text>

    <text x="804" y="590" text-anchor="middle" fill="#667267" font-size="13" font-family="Manrope, Arial, sans-serif" font-weight="700">06</text>
    <text x="860" y="590" text-anchor="middle" fill="#667267" font-size="13" font-family="Manrope, Arial, sans-serif" font-weight="700">08</text>
    <text x="916" y="590" text-anchor="middle" fill="#667267" font-size="13" font-family="Manrope, Arial, sans-serif" font-weight="700">10</text>
    <text x="972" y="590" text-anchor="middle" fill="#667267" font-size="13" font-family="Manrope, Arial, sans-serif" font-weight="700">12</text>
    <text x="1028" y="590" text-anchor="middle" fill="#667267" font-size="13" font-family="Manrope, Arial, sans-serif" font-weight="700">14</text>

    <text x="774" y="632" text-anchor="middle" fill="#FF7A22" font-size="15" font-family="Manrope, Arial, sans-serif" font-weight="800">M</text>
    <rect x="792" y="610" width="260" height="34" rx="10" fill="#F7F8F5"/>
    <rect x="850" y="614" width="110" height="26" rx="8" fill="#FF7A22" fill-opacity="0.95"/>

    <text x="774" y="684" text-anchor="middle" fill="#FF7A22" font-size="15" font-family="Manrope, Arial, sans-serif" font-weight="800">D</text>
    <rect x="792" y="662" width="260" height="34" rx="10" fill="#F7F8F5"/>
    <rect x="906" y="666" width="110" height="26" rx="8" fill="#FF7A22" fill-opacity="0.95"/>

    <text x="774" y="736" text-anchor="middle" fill="#FF7A22" font-size="15" font-family="Manrope, Arial, sans-serif" font-weight="800">M</text>
    <rect x="792" y="714" width="260" height="34" rx="10" fill="#F7F8F5"/>
    <rect x="850" y="718" width="74" height="26" rx="8" fill="#FF7A22" fill-opacity="0.95"/>
    <rect x="946" y="718" width="70" height="26" rx="8" fill="#FF7A22" fill-opacity="0.95"/>

    <text x="774" y="788" text-anchor="middle" fill="#FF7A22" font-size="15" font-family="Manrope, Arial, sans-serif" font-weight="800">D</text>
    <rect x="792" y="766" width="260" height="34" rx="10" fill="#F7F8F5"/>
    <rect x="878" y="770" width="110" height="26" rx="8" fill="#FF7A22" fill-opacity="0.95"/>

    <text x="774" y="840" text-anchor="middle" fill="#FF7A22" font-size="15" font-family="Manrope, Arial, sans-serif" font-weight="800">F</text>
    <rect x="792" y="818" width="260" height="34" rx="10" fill="#F7F8F5"/>
    <rect x="850" y="822" width="110" height="26" rx="8" fill="#FF7A22" fill-opacity="0.95"/>

    <text x="774" y="892" text-anchor="middle" fill="#95A095" font-size="15" font-family="Manrope, Arial, sans-serif" font-weight="800">S</text>
    <rect x="792" y="870" width="260" height="34" rx="10" fill="#F7F8F5"/>

    <text x="774" y="944" text-anchor="middle" fill="#95A095" font-size="15" font-family="Manrope, Arial, sans-serif" font-weight="800">S</text>
    <rect x="792" y="922" width="260" height="34" rx="10" fill="#F7F8F5"/>
  </g>

  <g filter="url(#softShadow)">
    <rect x="748" y="720" width="306" height="238" rx="28" fill="#FFFFFF" fill-opacity="0.96"/>
    <text x="901" y="766" text-anchor="middle" fill="#1F2A22" font-size="18" font-family="Manrope, Arial, sans-serif" font-weight="800">Zeitfenster bearbeiten</text>
    <text x="901" y="792" text-anchor="middle" fill="#667267" font-size="14" font-family="Manrope, Arial, sans-serif">Vordergarten an Montag, Dienstag, Mittwoch, Donnerstag und Freitag</text>

    <text x="814" y="838" text-anchor="middle" fill="#667267" font-size="13" font-family="Manrope, Arial, sans-serif" font-weight="700">Start</text>
    <text x="814" y="876" text-anchor="middle" fill="#1F2A22" font-size="30" font-family="Manrope, Arial, sans-serif" font-weight="800">08:00</text>
    <text x="990" y="838" text-anchor="middle" fill="#667267" font-size="13" font-family="Manrope, Arial, sans-serif" font-weight="700">Ende</text>
    <text x="990" y="876" text-anchor="middle" fill="#1F2A22" font-size="30" font-family="Manrope, Arial, sans-serif" font-weight="800">12:00</text>

    <rect x="770" y="906" width="122" height="48" rx="16" fill="#F4F7F0" stroke="#DCE4D8"/>
    <text x="831" y="937" text-anchor="middle" fill="#1F2A22" font-size="16" font-family="Manrope, Arial, sans-serif" font-weight="700">Loeschen</text>
    <rect x="902" y="906" width="122" height="48" rx="16" fill="#2F7D4A"/>
    <text x="963" y="937" text-anchor="middle" fill="#FFFFFF" font-size="16" font-family="Manrope, Arial, sans-serif" font-weight="800">Uebernehmen</text>
  </g>

  <!-- Joystick mode screen -->
  <g>
    <rect x="1206" y="492" width="492" height="456" rx="30" fill="url(#road)"/>
    <rect x="1224" y="528" width="456" height="402" rx="24" fill="url(#grass)"/>
    <path d="M1236 640C1296 610 1352 590 1438 590C1512 590 1580 610 1662 576" stroke="#E7EBE2" stroke-width="38" stroke-linecap="round"/>
    <path d="M1248 852C1326 820 1392 810 1468 810C1546 810 1610 818 1660 794" stroke="#E7EBE2" stroke-width="28" stroke-linecap="round"/>
    <path d="M1302 620L1430 572L1564 618L1592 736L1518 826L1388 820L1298 738Z" fill="#77AA6D" fill-opacity="0.18" stroke="#3E8B57" stroke-width="3"/>
    <circle cx="1428" cy="618" r="12" fill="#FFFFFF" stroke="#2F7D4A" stroke-width="4"/>
    <path d="M1428 618C1458 650 1480 680 1490 720C1498 756 1484 790 1452 822" stroke="#D6D94E" stroke-width="7" stroke-linecap="round" stroke-dasharray="2 14"/>
    <circle cx="1452" cy="822" r="13" fill="#D6D94E" stroke="#FFFFFF" stroke-width="4"/>
    <circle cx="1546" cy="724" r="13" fill="#FFFFFF" stroke="#C7921F" stroke-width="4"/>
    <path d="M1546 700L1560 730H1532L1546 700Z" fill="#C7921F"/>
  </g>

  <g filter="url(#softShadow)">
    <rect x="1356" y="528" width="192" height="40" rx="20" fill="#FFFFFF" fill-opacity="0.9"/>
    <text x="1452" y="554" text-anchor="middle" fill="#1F2A22" font-size="16" font-family="Manrope, Arial, sans-serif" font-weight="800">Manuelle Steuerung</text>

    <text x="1318" y="610" text-anchor="middle" fill="#FFFFFF" font-size="14" font-family="Manrope, Arial, sans-serif" font-weight="700">Lenken</text>
    <rect x="1244" y="738" width="148" height="148" rx="74" fill="#FFFFFF" fill-opacity="0.18"/>
    <circle cx="1318" cy="812" r="58" fill="#FFFFFF" fill-opacity="0.16" stroke="#FFFFFF" stroke-opacity="0.42" stroke-width="2"/>
    <path d="M1278 812H1358" stroke="#FFFFFF" stroke-opacity="0.44" stroke-width="2" stroke-linecap="round"/>
    <circle cx="1288" cy="812" r="20" fill="#FFFFFF" fill-opacity="0.9"/>
    <path d="M1278 812L1298 812" stroke="#667267" stroke-width="2.6" stroke-linecap="round"/>
    <path d="M1284 806L1278 812L1284 818" stroke="#667267" stroke-width="2.4" stroke-linecap="round" stroke-linejoin="round"/>
    <text x="1318" y="902" text-anchor="middle" fill="#FFFFFF" font-size="12" font-family="Manrope, Arial, sans-serif">links / rechts</text>

    <text x="1584" y="610" text-anchor="middle" fill="#FFFFFF" font-size="14" font-family="Manrope, Arial, sans-serif" font-weight="700">Fahren</text>
    <rect x="1510" y="738" width="148" height="148" rx="74" fill="#FFFFFF" fill-opacity="0.18"/>
    <circle cx="1584" cy="812" r="58" fill="#FFFFFF" fill-opacity="0.16" stroke="#FFFFFF" stroke-opacity="0.42" stroke-width="2"/>
    <path d="M1584 772V852" stroke="#FFFFFF" stroke-opacity="0.44" stroke-width="2" stroke-linecap="round"/>
    <circle cx="1584" cy="786" r="20" fill="#FFFFFF" fill-opacity="0.9"/>
    <path d="M1584 776V796" stroke="#667267" stroke-width="2.6" stroke-linecap="round"/>
    <path d="M1578 782L1584 776L1590 782" stroke="#667267" stroke-width="2.4" stroke-linecap="round" stroke-linejoin="round"/>
    <text x="1584" y="902" text-anchor="middle" fill="#FFFFFF" font-size="12" font-family="Manrope, Arial, sans-serif">vor / zurueck</text>

    <rect x="1433" y="866" width="38" height="38" rx="19" fill="#FFF3F1"/>
    <circle cx="1452" cy="885" r="10" fill="#C6463B"/>
    <rect x="1450.4" y="879" width="3.2" height="9" rx="1.6" fill="#FFFFFF"/>
    <circle cx="1452" cy="891" r="1.8" fill="#FFFFFF"/>
  </g>

  <g filter="url(#softShadow)">
    <rect x="92" y="972" width="24" height="24" rx="8" fill="#2F7D4A"/>
    <text x="128" y="990" fill="#667267" font-size="15" font-family="Manrope, Arial, sans-serif">Schedule beginnt mit Zonenwahl statt nutzlosem Empfehlungs-Fragebogen</text>
    <rect x="704" y="972" width="24" height="24" rx="8" fill="#FF7A22"/>
    <text x="740" y="990" fill="#667267" font-size="15" font-family="Manrope, Arial, sans-serif">Wochenraster zeigt Slots kompakt und laesst einzelne Zeitfenster modal bearbeiten</text>
    <rect x="1366" y="972" width="24" height="24" rx="8" fill="#FFFFFF" stroke="#DCE4D8"/>
    <text x="1402" y="990" fill="#667267" font-size="15" font-family="Manrope, Arial, sans-serif">Joystick im Querformat: links nur rechts und links, rechts nur vor und zurueck</text>
  </g>
</svg>