<svg width="1600" height="900" viewBox="0 0 1600 900" fill="none" xmlns="http://www.w3.org/2000/svg">
  <defs>
    <linearGradient id="bg" x1="0" y1="0" x2="0" y2="1">
      <stop offset="0%" stop-color="#0A1220"/>
      <stop offset="100%" stop-color="#03070D"/>
    </linearGradient>
    <linearGradient id="map" x1="0" y1="0" x2="1" y2="1">
      <stop offset="0%" stop-color="#193D2A"/>
      <stop offset="100%" stop-color="#0E2219"/>
    </linearGradient>
    <linearGradient id="card" x1="0" y1="0" x2="0" y2="1">
      <stop offset="0%" stop-color="#142032"/>
      <stop offset="100%" stop-color="#0B1320"/>
    </linearGradient>
    <filter id="shadow" x="-20%" y="-20%" width="140%" height="140%">
      <feDropShadow dx="0" dy="24" stdDeviation="24" flood-color="#000000" flood-opacity="0.35"/>
    </filter>
  </defs>

  <rect width="1600" height="900" fill="url(#bg)"/>
  <text x="800" y="72" text-anchor="middle" fill="#E2E8F0" font-size="34" font-family="Arial, sans-serif" font-weight="700">
    Sunray Mobile Mockup
  </text>
  <text x="800" y="106" text-anchor="middle" fill="#94A3B8" font-size="18" font-family="Arial, sans-serif">
    Navimow-inspirierte Richtung: kartenzentriert, ruhig, wenige schwebende Aktionen
  </text>

  <!-- Left phone -->
  <g filter="url(#shadow)">
    <rect x="170" y="150" width="430" height="620" rx="42" fill="#02060B"/>
    <rect x="188" y="168" width="394" height="584" rx="32" fill="#09111D"/>
    <rect x="322" y="182" width="126" height="18" rx="9" fill="#0F172A"/>

    <!-- map -->
    <rect x="188" y="168" width="394" height="584" rx="32" fill="url(#map)"/>
    <path d="M230 270C295 230 354 255 410 235C456 219 512 232 555 210" stroke="#7DD3A7" stroke-width="6" stroke-linecap="round"/>
    <path d="M232 401C286 362 321 380 370 354C430 323 480 336 538 302" stroke="#9AE6B4" stroke-width="6" stroke-linecap="round" stroke-dasharray="14 14"/>
    <path d="M255 525C318 494 364 503 430 468C478 442 506 445 551 417" stroke="#86EFAC" stroke-width="6" stroke-linecap="round"/>
    <rect x="280" y="310" width="76" height="58" rx="14" fill="#2A5A43" fill-opacity="0.9" stroke="#A7F3D0" stroke-width="2"/>
    <rect x="418" y="262" width="92" height="72" rx="16" fill="#244C39" fill-opacity="0.9" stroke="#A7F3D0" stroke-width="2"/>
    <rect x="377" y="470" width="106" height="78" rx="16" fill="#2D6A4F" fill-opacity="0.9" stroke="#BBF7D0" stroke-width="2"/>
    <circle cx="501" cy="601" r="12" fill="#F8FAFC"/>
    <path d="M501 581L516 609H486L501 581Z" fill="#F8FAFC"/>

    <!-- top overlays -->
    <rect x="210" y="218" width="232" height="66" rx="18" fill="#101A2B" fill-opacity="0.9" stroke="#334155"/>
    <text x="228" y="247" fill="#F8FAFC" font-size="20" font-family="Arial, sans-serif" font-weight="700">Alfred</text>
    <text x="228" y="269" fill="#93C5FD" font-size="14" font-family="Arial, sans-serif">Live-Karte</text>

    <rect x="464" y="218" width="44" height="44" rx="22" fill="#101A2B" fill-opacity="0.92" stroke="#334155"/>
    <text x="486" y="246" text-anchor="middle" fill="#F8FAFC" font-size="20" font-family="Arial, sans-serif">≡</text>
    <rect x="520" y="218" width="44" height="44" rx="22" fill="#101A2B" fill-opacity="0.92" stroke="#334155"/>
    <text x="542" y="246" text-anchor="middle" fill="#F8FAFC" font-size="20" font-family="Arial, sans-serif">⋯</text>

    <!-- status chips -->
    <rect x="210" y="300" width="74" height="30" rx="15" fill="#0F172A" fill-opacity="0.88" stroke="#475569"/>
    <text x="247" y="320" text-anchor="middle" fill="#4ADE80" font-size="13" font-family="Arial, sans-serif">82%</text>
    <rect x="210" y="338" width="86" height="30" rx="15" fill="#0F172A" fill-opacity="0.88" stroke="#475569"/>
    <text x="253" y="358" text-anchor="middle" fill="#86EFAC" font-size="13" font-family="Arial, sans-serif">GPS Fix</text>
    <rect x="210" y="376" width="78" height="30" rx="15" fill="#0F172A" fill-opacity="0.88" stroke="#475569"/>
    <text x="249" y="396" text-anchor="middle" fill="#E2E8F0" font-size="13" font-family="Arial, sans-serif">Bereit</text>

    <!-- mission strip -->
    <rect x="210" y="564" width="350" height="74" rx="24" fill="#101A2B" fill-opacity="0.92" stroke="#334155"/>
    <rect x="226" y="580" width="42" height="42" rx="14" fill="#16314F"/>
    <text x="247" y="607" text-anchor="middle" fill="#93C5FD" font-size="20" font-family="Arial, sans-serif">↗</text>
    <text x="282" y="595" fill="#F8FAFC" font-size="18" font-family="Arial, sans-serif" font-weight="700">Vordergarten</text>
    <text x="282" y="617" fill="#CBD5E1" font-size="13" font-family="Arial, sans-serif">Zone A • Zone B</text>
    <text x="535" y="608" text-anchor="middle" fill="#94A3B8" font-size="20" font-family="Arial, sans-serif">⌃</text>

    <!-- control card -->
    <rect x="210" y="650" width="350" height="82" rx="28" fill="url(#card)" stroke="#334155"/>
    <text x="230" y="680" fill="#F8FAFC" font-size="22" font-family="Arial, sans-serif" font-weight="700">Jetzt mähen</text>
    <text x="230" y="701" fill="#CBD5E1" font-size="13" font-family="Arial, sans-serif">Mission direkt starten</text>
    <rect x="230" y="708" width="134" height="40" rx="18" fill="#22C55E"/>
    <text x="297" y="734" text-anchor="middle" fill="#04110A" font-size="17" font-family="Arial, sans-serif" font-weight="800">MOW</text>
    <rect x="374" y="708" width="86" height="40" rx="18" fill="#101A2B" stroke="#475569"/>
    <text x="417" y="734" text-anchor="middle" fill="#F8FAFC" font-size="16" font-family="Arial, sans-serif" font-weight="700">HOME</text>
    <rect x="470" y="708" width="72" height="40" rx="18" fill="#101A2B" stroke="#7F1D1D"/>
    <text x="506" y="734" text-anchor="middle" fill="#FCA5A5" font-size="16" font-family="Arial, sans-serif" font-weight="700">STOP</text>

    <circle cx="548" cy="526" r="22" fill="#1E293B" stroke="#475569"/>
    <text x="548" y="533" text-anchor="middle" fill="#F8FAFC" font-size="16" font-family="Arial, sans-serif">⊕</text>
  </g>

  <!-- Right phone -->
  <g filter="url(#shadow)">
    <rect x="880" y="150" width="430" height="620" rx="42" fill="#02060B"/>
    <rect x="898" y="168" width="394" height="584" rx="32" fill="#09111D"/>
    <rect x="1032" y="182" width="126" height="18" rx="9" fill="#0F172A"/>

    <rect x="898" y="168" width="394" height="584" rx="32" fill="url(#map)"/>
    <path d="M941 274C1007 235 1060 263 1114 239C1165 217 1217 236 1263 213" stroke="#7DD3A7" stroke-width="6" stroke-linecap="round"/>
    <path d="M940 399C993 364 1036 382 1080 352C1130 319 1180 331 1246 296" stroke="#9AE6B4" stroke-width="6" stroke-linecap="round"/>
    <path d="M979 328L1018 302L1041 327L1000 351Z" fill="#FCA5A5" fill-opacity="0.45" stroke="#FCA5A5" stroke-width="2"/>
    <rect x="1088" y="448" width="122" height="86" rx="18" fill="#2D6A4F" fill-opacity="0.95" stroke="#BBF7D0" stroke-width="2"/>
    <text x="1149" y="497" text-anchor="middle" fill="#F0FDF4" font-size="18" font-family="Arial, sans-serif" font-weight="700">Zone B</text>
    <text x="1149" y="518" text-anchor="middle" fill="#D1FAE5" font-size="13" font-family="Arial, sans-serif">aktiv</text>
    <circle cx="1198" cy="430" r="9" fill="#F8FAFC"/>
    <circle cx="1087" cy="545" r="9" fill="#F8FAFC"/>

    <!-- top bar -->
    <rect x="920" y="218" width="44" height="44" rx="22" fill="#101A2B" fill-opacity="0.92" stroke="#334155"/>
    <text x="942" y="246" text-anchor="middle" fill="#F8FAFC" font-size="20" font-family="Arial, sans-serif">←</text>
    <rect x="976" y="218" width="214" height="66" rx="18" fill="#101A2B" fill-opacity="0.9" stroke="#334155"/>
    <text x="994" y="247" fill="#F8FAFC" font-size="20" font-family="Arial, sans-serif" font-weight="700">Karte bearbeiten</text>
    <text x="994" y="269" fill="#93C5FD" font-size="14" font-family="Arial, sans-serif">Zone B</text>
    <rect x="1204" y="218" width="44" height="44" rx="22" fill="#101A2B" fill-opacity="0.92" stroke="#334155"/>
    <text x="1226" y="246" text-anchor="middle" fill="#F8FAFC" font-size="18" font-family="Arial, sans-serif">↶</text>

    <!-- right floating actions -->
    <rect x="1138" y="342" width="120" height="44" rx="22" fill="#101A2B" fill-opacity="0.92" stroke="#334155"/>
    <text x="1198" y="369" text-anchor="middle" fill="#F8FAFC" font-size="16" font-family="Arial, sans-serif" font-weight="700">Add more</text>
    <rect x="1158" y="398" width="100" height="44" rx="22" fill="#101A2B" fill-opacity="0.92" stroke="#334155"/>
    <text x="1208" y="425" text-anchor="middle" fill="#F8FAFC" font-size="16" font-family="Arial, sans-serif" font-weight="700">Edit</text>
    <rect x="1214" y="454" width="44" height="44" rx="22" fill="#101A2B" fill-opacity="0.92" stroke="#334155"/>
    <text x="1236" y="481" text-anchor="middle" fill="#F8FAFC" font-size="18" font-family="Arial, sans-serif">◫</text>

    <!-- bottom edit card -->
    <rect x="920" y="610" width="350" height="122" rx="28" fill="url(#card)" stroke="#334155"/>
    <text x="942" y="640" fill="#F8FAFC" font-size="22" font-family="Arial, sans-serif" font-weight="700">Zone B</text>
    <text x="942" y="661" fill="#CBD5E1" font-size="13" font-family="Arial, sans-serif">Punkt antippen und verschieben oder neue Segmente setzen</text>

    <rect x="942" y="676" width="82" height="28" rx="14" fill="#0F172A" stroke="#1E3A5F"/>
    <text x="983" y="694" text-anchor="middle" fill="#E2E8F0" font-size="12" font-family="Arial, sans-serif">Dock bereit</text>
    <rect x="1032" y="676" width="76" height="28" rx="14" fill="#0F172A" stroke="#1E3A5F"/>
    <text x="1070" y="694" text-anchor="middle" fill="#E2E8F0" font-size="12" font-family="Arial, sans-serif">3 Zonen</text>
    <rect x="1116" y="676" width="92" height="28" rx="14" fill="#0F172A" stroke="#1E3A5F"/>
    <text x="1162" y="694" text-anchor="middle" fill="#E2E8F0" font-size="12" font-family="Arial, sans-serif">1 No-Go</text>

    <rect x="942" y="714" width="98" height="38" rx="18" fill="#101A2B" stroke="#475569"/>
    <text x="991" y="738" text-anchor="middle" fill="#F8FAFC" font-size="15" font-family="Arial, sans-serif" font-weight="700">Zone</text>
    <rect x="1052" y="714" width="102" height="38" rx="18" fill="#101A2B" stroke="#475569"/>
    <text x="1103" y="738" text-anchor="middle" fill="#F8FAFC" font-size="15" font-family="Arial, sans-serif" font-weight="700">Punkt löschen</text>
    <rect x="1166" y="714" width="90" height="38" rx="18" fill="#172033" stroke="#7F1D1D"/>
    <text x="1211" y="738" text-anchor="middle" fill="#FCA5A5" font-size="15" font-family="Arial, sans-serif" font-weight="700">Löschen</text>
  </g>

  <text x="385" y="810" text-anchor="middle" fill="#E2E8F0" font-size="24" font-family="Arial, sans-serif" font-weight="700">
    Dashboard
  </text>
  <text x="385" y="838" text-anchor="middle" fill="#94A3B8" font-size="16" font-family="Arial, sans-serif">
    fast volle Karte, kleine Overlays, kompakte Primäraktionen
  </text>

  <text x="1095" y="810" text-anchor="middle" fill="#E2E8F0" font-size="24" font-family="Arial, sans-serif" font-weight="700">
    Zonen anlegen / Karte bearbeiten
  </text>
  <text x="1095" y="838" text-anchor="middle" fill="#94A3B8" font-size="16" font-family="Arial, sans-serif">
    eigener Kartenmodus mit schwebenden Werkzeugen statt Formularansicht
  </text>
</svg>
